<svg width="25" height="24" viewBox="0 0 25 24" fill="none" xmlns="http://www.w3.org/2000/svg">
<g id="Pause/Play Icon">
<path id="Pause" fill-rule="evenodd" clip-rule="evenodd" d="M6.44458 2.96826C6.16844 2.96826 5.94458 3.19212 5.94458 3.46826V20.5317C5.94458 20.8079 6.16844 21.0317 6.44458 21.0317H9.44458C9.72072 21.0317 9.94458 20.8079 9.94458 20.5317V3.46826C9.94458 3.19212 9.72072 2.96826 9.44458 2.96826H6.44458ZM16.5164 2.96826C16.2402 2.96826 16.0164 3.19212 16.0164 3.46826V20.5317C16.0164 20.8079 16.2402 21.0317 16.5164 21.0317H19.5164C19.7925 21.0317 20.0164 20.8079 20.0164 20.5317V3.46826C20.0164 3.19212 19.7925 2.96826 19.5164 2.96826H16.5164Z" fill="white"/>
</g>
</svg>
