<svg width="24" height="24" viewBox="0 0 24 24" fill="none" xmlns="http://www.w3.org/2000/svg">
<g id="Previous Icon">
<g id="previous Icon">
<mask id="path-1-inside-1_207_4" fill="white">
<path fill-rule="evenodd" clip-rule="evenodd" d="M21.7909 0C22.3432 0 22.7909 0.447716 22.7909 1V23C22.7909 23.5523 22.3432 24 21.7909 24H19.6532C19.1009 24 18.6532 23.5523 18.6532 23V13.7078L1.96322 23.5551C1.62991 23.7517 1.20915 23.5115 1.20915 23.1245L1.20914 0.866501C1.20914 0.481508 1.62599 0.240959 1.95932 0.433592L18.6532 10.081V1C18.6532 0.447715 19.1009 0 19.6532 0H21.7909Z"/>
</mask>
<path fill-rule="evenodd" clip-rule="evenodd" d="M21.7909 0C22.3432 0 22.7909 0.447716 22.7909 1V23C22.7909 23.5523 22.3432 24 21.7909 24H19.6532C19.1009 24 18.6532 23.5523 18.6532 23V13.7078L1.96322 23.5551C1.62991 23.7517 1.20915 23.5115 1.20915 23.1245L1.20914 0.866501C1.20914 0.481508 1.62599 0.240959 1.95932 0.433592L18.6532 10.081V1C18.6532 0.447715 19.1009 0 19.6532 0H21.7909Z" fill="white"/>
<path d="M18.6532 13.7078L18.145 12.8465L19.6532 11.9567V13.7078H18.6532ZM1.96322 23.5551L1.45506 22.6938L1.45507 22.6938L1.96322 23.5551ZM1.20915 23.1245L2.20915 23.1245V23.1245H1.20915ZM1.20914 0.866501L0.209145 0.866501V0.866501H1.20914ZM1.95932 0.433592L1.45897 1.29941L1.45896 1.29941L1.95932 0.433592ZM18.6532 10.081H19.6532V11.8138L18.1528 10.9468L18.6532 10.081ZM21.7909 1V1V-1C22.8955 -1 23.7909 -0.104568 23.7909 1H21.7909ZM21.7909 23V1H23.7909V23H21.7909ZM21.7909 23H21.7909H23.7909C23.7909 24.1046 22.8955 25 21.7909 25V23ZM19.6532 23H21.7909V25H19.6532V23ZM19.6532 23V25C18.5486 25 17.6532 24.1046 17.6532 23H19.6532ZM19.6532 13.7078V23H17.6532V13.7078H19.6532ZM1.45507 22.6938L18.145 12.8465L19.1613 14.569L2.47138 24.4163L1.45507 22.6938ZM2.20915 23.1245C2.20915 22.7375 1.78838 22.4972 1.45506 22.6938L2.47138 24.4163C1.47145 25.0063 0.209146 24.2855 0.209146 23.1245H2.20915ZM2.20914 0.866501L2.20915 23.1245L0.209146 23.1245L0.209145 0.866501L2.20914 0.866501ZM1.45896 1.29941C1.7923 1.49204 2.20914 1.2515 2.20914 0.866501H0.209145C0.209145 -0.288479 1.45968 -1.01013 2.45968 -0.432227L1.45896 1.29941ZM18.1528 10.9468L1.45897 1.29941L2.45968 -0.432228L19.1535 9.21513L18.1528 10.9468ZM19.6532 1V10.081H17.6532V1H19.6532ZM19.6532 1H17.6532C17.6532 -0.104569 18.5486 -1 19.6532 -1V1ZM21.7909 1H19.6532V-1H21.7909V1Z" fill="white" mask="url(#path-1-inside-1_207_4)"/>
</g>
</g>
</svg>
