<svg width="25" height="24" viewBox="0 0 25 24" fill="none" xmlns="http://www.w3.org/2000/svg">
<g id="Previous Icon">
<g id="previous Icon">
<mask id="path-1-inside-1_64_215" fill="white">
<path fill-rule="evenodd" clip-rule="evenodd" d="M3.18958 0C2.63729 0 2.18958 0.447716 2.18958 1V23C2.18958 23.5523 2.63729 24 3.18958 24H5.32728C5.87956 24 6.32728 23.5523 6.32728 23V13.7078L23.0172 23.5551C23.3506 23.7517 23.7713 23.5115 23.7713 23.1245L23.7713 0.866501C23.7713 0.481508 23.3545 0.240959 23.0211 0.433592L6.32728 10.081V1C6.32728 0.447715 5.87956 0 5.32728 0H3.18958Z"/>
</mask>
<path fill-rule="evenodd" clip-rule="evenodd" d="M3.18958 0C2.63729 0 2.18958 0.447716 2.18958 1V23C2.18958 23.5523 2.63729 24 3.18958 24H5.32728C5.87956 24 6.32728 23.5523 6.32728 23V13.7078L23.0172 23.5551C23.3506 23.7517 23.7713 23.5115 23.7713 23.1245L23.7713 0.866501C23.7713 0.481508 23.3545 0.240959 23.0211 0.433592L6.32728 10.081V1C6.32728 0.447715 5.87956 0 5.32728 0H3.18958Z" fill="white"/>
<path d="M6.32728 13.7078L6.83544 12.8465L5.32728 11.9567V13.7078H6.32728ZM23.0172 23.5551L23.5254 22.6938H23.5254L23.0172 23.5551ZM23.7713 23.1245H22.7713H23.7713ZM23.7713 0.866501L24.7713 0.866501V0.866501H23.7713ZM23.0211 0.433592L23.5215 1.29941V1.29941L23.0211 0.433592ZM6.32728 10.081H5.32728V11.8138L6.82763 10.9468L6.32728 10.081ZM3.18958 1V1V-1C2.08501 -1 1.18958 -0.104568 1.18958 1H3.18958ZM3.18958 23V1H1.18958V23H3.18958ZM3.18958 23H3.18958H1.18958C1.18958 24.1046 2.08501 25 3.18958 25V23ZM5.32728 23H3.18958V25H5.32728V23ZM5.32728 23V25C6.43185 25 7.32728 24.1046 7.32728 23H5.32728ZM5.32728 13.7078V23H7.32728V13.7078H5.32728ZM23.5254 22.6938L6.83544 12.8465L5.81912 14.569L22.5091 24.4163L23.5254 22.6938ZM22.7713 23.1245C22.7713 22.7375 23.1921 22.4972 23.5254 22.6938L22.5091 24.4163C23.509 25.0063 24.7713 24.2855 24.7713 23.1245H22.7713ZM22.7713 0.866501L22.7713 23.1245H24.7713L24.7713 0.866501L22.7713 0.866501ZM23.5215 1.29941C23.1882 1.49204 22.7713 1.2515 22.7713 0.866501H24.7713C24.7713 -0.288479 23.5208 -1.01013 22.5208 -0.432227L23.5215 1.29941ZM6.82763 10.9468L23.5215 1.29941L22.5208 -0.432228L5.82692 9.21513L6.82763 10.9468ZM5.32728 1V10.081H7.32728V1H5.32728ZM5.32728 1H7.32728C7.32728 -0.104569 6.43185 -1 5.32728 -1V1ZM3.18958 1H5.32728V-1H3.18958V1Z" fill="white" mask="url(#path-1-inside-1_64_215)"/>
</g>
</g>
</svg>
