<svg width="20" height="20" viewBox="0 0 20 20" fill="none" xmlns="http://www.w3.org/2000/svg">
<path d="M15.9155 2.60331C16.8723 2.60331 17.648 3.37896 17.648 4.33577V12.6349C17.648 13.5917 16.8723 14.3673 15.9155 14.3673H11.6723L13.3462 12.6935C13.5655 12.3562 13.5229 11.8954 13.2213 11.5938C12.919 11.2914 12.4566 11.2493 12.1191 11.4705L8.96856 14.621C8.63027 14.9593 8.63027 15.5078 8.96856 15.8461L12.0888 18.9663C12.4283 19.2126 12.9097 19.1792 13.2202 18.8687C13.5228 18.5661 13.5622 18.1012 13.336 17.7635L11.6723 16.0998H15.9155C17.8291 16.0998 19.3804 14.5485 19.3804 12.6349V4.33577C19.3804 2.42215 17.8291 0.87085 15.9155 0.87085H4.04536C2.13174 0.87085 0.580444 2.42215 0.580444 4.33577V12.6349C0.580444 14.5485 2.13174 16.0998 4.04536 16.0998H6.7096V14.3673H4.04536C3.08855 14.3673 2.3129 13.5917 2.3129 12.6349V4.33577C2.3129 3.37896 3.08855 2.60331 4.04536 2.60331H15.9155Z" fill="white"/>
</svg>
